<svg width="698" height="416" viewBox="0 0 698 416" fill="none" xmlns="http://www.w3.org/2000/svg">
<path d="M368.764 198.384H144.688C138.62 198.384 133.701 193.465 133.701 187.397V34.237C133.701 28.169 138.62 23.25 144.688 23.25H368.764C374.832 23.25 379.751 28.169 379.751 34.237V187.396C379.751 193.465 374.832 198.384 368.764 198.384Z" fill="white" stroke="#D8D7E2" stroke-width="0.75" stroke-miterlimit="10" stroke-linecap="round" stroke-linejoin="round"/>
<path d="M371.152 23.25H142.3C137.551 23.25 133.701 27.591 133.701 32.946V37.792H379.751V32.946C379.751 27.592 375.901 23.25 371.152 23.25Z" fill="#D8D7E2" stroke="#D8D7E2" stroke-width="0.75" stroke-miterlimit="10"/>
<path d="M145.991 30.5221C145.991 32.2101 144.631 33.5781 142.954 33.5781C141.277 33.5781 139.917 32.2101 139.917 30.5221C139.917 28.8341 141.277 27.4661 142.954 27.4661C144.631 27.4661 145.991 28.8341 145.991 30.5221Z" stroke="#C4C1D2" stroke-width="0.75" stroke-miterlimit="10"/>
<path d="M154.411 33.5781C156.088 33.5781 157.448 32.2098 157.448 30.5221C157.448 28.8343 156.088 27.4661 154.411 27.4661C152.734 27.4661 151.374 28.8343 151.374 30.5221C151.374 32.2098 152.734 33.5781 154.411 33.5781Z" stroke="#C4C1D2" stroke-width="0.75" stroke-miterlimit="10"/>
<path d="M168.905 30.5221C168.905 32.2101 167.545 33.5781 165.867 33.5781C164.19 33.5781 162.83 32.2101 162.83 30.5221C162.83 28.8341 164.19 27.4661 165.867 27.4661C167.545 27.4661 168.905 28.8341 168.905 30.5221Z" stroke="#C4C1D2" stroke-width="0.75" stroke-miterlimit="10"/>
<path d="M153.553 52.823H270.5C271.729 52.823 272.725 51.827 272.725 50.598C272.725 49.369 271.729 48.373 270.5 48.373H153.553C152.324 48.373 151.329 49.369 151.329 50.598C151.329 51.827 152.325 52.823 153.553 52.823Z" fill="#C4C1D2"/>
<path d="M156.782 59.1431H239.52C240.102 59.1431 240.573 58.6711 240.573 58.0901C240.573 57.5081 240.101 57.0371 239.52 57.0371H156.782C156.2 57.0371 155.729 57.5091 155.729 58.0901C155.729 58.6711 156.2 59.1431 156.782 59.1431Z" fill="#D8D7E2"/>
<path d="M156.782 64.3401H253.554C254.136 64.3401 254.607 63.8681 254.607 63.2871C254.607 62.7051 254.135 62.2341 253.554 62.2341H156.782C156.2 62.2341 155.729 62.7061 155.729 63.2871C155.729 63.8681 156.2 64.3401 156.782 64.3401Z" fill="#D8D7E2"/>
<path d="M156.782 69.5372H210.973C211.555 69.5372 212.026 69.0652 212.026 68.4842C212.026 67.9022 211.554 67.4312 210.973 67.4312H156.782C156.2 67.4312 155.729 67.9032 155.729 68.4842C155.729 69.0662 156.2 69.5372 156.782 69.5372Z" fill="#D8D7E2"/>
<path d="M331.381 67.4961H308.013V183.268H331.381V67.4961Z" fill="#D8D7E2"/>
<path d="M267.698 124.044H244.33V183.267H267.698V124.044Z" fill="#D8D7E2"/>
<path d="M299.54 103.387H276.172V183.268H299.54V103.387Z" fill="#F2F2F4"/>
<path d="M204.014 88.321H180.646V183.268H204.014V88.321Z" fill="#D8D7E2"/>
<path d="M172.172 158.864H148.804V183.268H172.172V158.864Z" fill="#F2F2F4"/>
<path d="M235.856 138.525H212.488V183.268H235.856V138.525Z" fill="#F2F2F4"/>
<path d="M137.475 183.268H349.309" stroke="#C4C1D2" stroke-width="0.75" stroke-miterlimit="10" stroke-linecap="round"/>
<path d="M111.02 319.082C97.969 312.834 77.702 352.295 77.702 352.295C77.702 352.295 100.814 304.385 88.203 299.266C75.592 294.147 61.478 353.239 61.478 353.239C61.478 353.239 76.139 288.651 65.769 286.009C55.399 283.367 51.108 353.239 51.108 353.239C51.108 353.239 47.174 282.929 33.943 288.507C20.712 294.085 39.87 353.239 39.87 353.239C39.87 353.239 16.421 289.366 8.55401 299.266C3.65901 305.426 18.187 333.619 26.379 349.928C18.288 342.19 4.87101 330.379 1.58101 335.354C-3.64299 343.254 25.419 362.042 25.419 362.042L37.679 361.881L85.794 361.638C85.794 361.638 124.071 325.33 111.02 319.082Z" fill="#C4C1D2"/>
<path d="M63.398 304.138L54.816 361.342" stroke="#A3A1AF" stroke-width="0.75" stroke-miterlimit="10" stroke-linecap="round" stroke-linejoin="round"/>
<path d="M64.828 361.342L79.609 321.258" stroke="#A3A1AF" stroke-width="0.75" stroke-miterlimit="10" stroke-linecap="round" stroke-linejoin="round"/>
<path d="M77.702 361.679C78.536 361.026 96.535 338.178 96.535 338.178" stroke="#A3A1AF" stroke-width="0.75" stroke-miterlimit="10" stroke-linecap="round" stroke-linejoin="round"/>
<path d="M35.744 300.354L45.876 361.914" stroke="#A3A1AF" stroke-width="0.75" stroke-miterlimit="10" stroke-linecap="round" stroke-linejoin="round"/>
<path d="M21.917 326.1L37.68 361.881" stroke="#A3A1AF" stroke-width="0.75" stroke-miterlimit="10" stroke-linecap="round" stroke-linejoin="round"/>
<path d="M12.658 344.965L29.798 362.042" stroke="#A3A1AF" stroke-width="0.75" stroke-miterlimit="10" stroke-linecap="round" stroke-linejoin="round"/>
<path d="M29.365 368.397L36.41 414.499H50.989H61.096H75.675L82.72 368.397H29.365Z" fill="#D8D7E2"/>
<path d="M87.026 370.243H25.059C22.811 370.243 20.989 368.421 20.989 366.173V365.435C20.989 363.187 22.811 361.365 25.059 361.365H87.025C89.273 361.365 91.095 363.187 91.095 365.435V366.173C91.096 368.421 89.273 370.243 87.026 370.243Z" fill="#D8D7E2"/>
<path d="M26.38 370.243H84.802" stroke="#A3A1AF" stroke-width="0.75" stroke-miterlimit="10" stroke-linecap="round" stroke-linejoin="round"/>
<path d="M296.73 131.046C296.73 131.046 273.019 104.054 269.929 98.9399C266.839 93.8249 273.05 82.5989 281.042 84.5169C289.033 86.4349 302.878 101.505 311.513 113.862L296.73 131.046Z" fill="white" stroke="#020046" stroke-width="0.75" stroke-miterlimit="10"/>
<path d="M265.926 95.316C265.926 95.316 262.836 93.824 262.037 91.214C261.238 88.603 263.209 86.88 267.631 89.074C272.053 91.267 265.926 95.316 265.926 95.316Z" fill="white" stroke="#020046" stroke-width="0.75" stroke-miterlimit="10" stroke-linecap="round" stroke-linejoin="round"/>
<path d="M263.607 89.074C263.607 89.074 261.636 87.55 261.863 85.36C262.09 83.17 264.168 81.678 268.43 85.141C272.692 88.604 268.75 92.561 268.75 92.561L263.607 89.074Z" fill="white" stroke="#020046" stroke-width="0.75" stroke-miterlimit="10" stroke-linecap="round" stroke-linejoin="round"/>
<path d="M277.247 74.802H275.289H263.102L266.41 106.402H275.289H277.247H286.125L289.434 74.802H277.247Z" fill="white" stroke="#020046" stroke-width="0.75" stroke-miterlimit="10" stroke-linecap="round" stroke-linejoin="round"/>
<path d="M265.483 97.5499H287.052L288.75 81.3369H263.786L265.483 97.5499Z" fill="#16A663" stroke="#020046" stroke-width="0.75" stroke-miterlimit="10" stroke-linecap="round" stroke-linejoin="round"/>
<path d="M286.925 71.6379H265.852C265.041 71.6379 264.384 70.9809 264.384 70.1699V67.3989C264.384 66.5879 265.041 65.9309 265.852 65.9309H286.925C287.736 65.9309 288.393 66.5879 288.393 67.3989V70.1699C288.393 70.9809 287.736 71.6379 286.925 71.6379Z" fill="#04341E"/>
<path d="M290.631 75.2928H262.146C261.086 75.2928 260.227 74.4338 260.227 73.3738V71.3858C260.227 70.3258 261.086 69.4668 262.146 69.4668H290.631C291.691 69.4668 292.55 70.3258 292.55 71.3858V73.3738C292.55 74.4338 291.691 75.2928 290.631 75.2928Z" fill="#04341E"/>
<path d="M291.668 107.414C283.517 101.185 287.715 98.14 283.756 91.667C281.289 87.633 283.356 84.634 285.594 85.513C287.832 86.392 296.73 95.976 296.73 95.976L291.668 107.414Z" fill="white"/>
<path d="M296.73 95.976C296.73 95.976 287.832 86.392 285.594 85.513C283.356 84.634 281.289 87.633 283.756 91.667C287.715 98.14 283.516 101.185 291.668 107.414" stroke="#020046" stroke-width="0.75" stroke-miterlimit="10" stroke-linecap="round" stroke-linejoin="round"/>
<path d="M373.69 95.635L325.815 123.744L310.141 105.941L284.107 127.231C284.107 127.231 297.793 174.157 330.59 176.81C363.386 179.463 383.634 140.128 383.634 140.128L373.69 95.635Z" fill="#1DD1DD"/>
<path d="M315.446 111.967L287.262 134.298" stroke="#020046" stroke-width="0.75" stroke-miterlimit="10" stroke-linecap="round" stroke-linejoin="round"/>
<path d="M336.02 117.346L325.893 123.183" stroke="#020046" stroke-width="0.75" stroke-miterlimit="10" stroke-linecap="round" stroke-linejoin="round"/>
<path d="M330.59 129.167L310.141 105.941L284.107 127.231C284.107 127.231 297.793 174.157 330.59 176.81C363.386 179.463 383.634 140.128 383.634 140.128" stroke="#020046" stroke-width="0.75" stroke-miterlimit="10" stroke-linecap="round" stroke-linejoin="round"/>
<path d="M377.49 128.63C377.49 128.63 375.351 110.697 376.242 105.493C377.133 100.29 379.985 94.2302 384.53 93.9622C389.075 93.6952 400.482 94.0512 402.621 96.9922C404.76 99.9332 408.948 103.943 407.433 114.459C405.918 124.975 399.412 163.446 399.412 163.446L394.755 174.704H386.496L377.49 128.63Z" fill="white"/>
<path d="M389.697 91.623V159.662" stroke="#020046" stroke-width="0.75" stroke-miterlimit="10" stroke-linecap="round" stroke-linejoin="round"/>
<path d="M389.697 96.814L382.174 108.286L376.026 94.9201C376.026 94.9201 381.93 88.8111 384.21 88.4041C386.49 87.9971 396.307 87.8831 396.307 87.8831C396.307 87.8831 401.575 92.0011 403.685 94.2261C405.794 96.4511 396.934 109.091 396.934 109.091L389.697 96.814Z" fill="white" stroke="#020046" stroke-width="0.75" stroke-miterlimit="10" stroke-linecap="round" stroke-linejoin="round"/>
<path d="M347.745 369.438L354.281 222.928L388.336 220.222L376.909 370.512L347.745 369.438Z" fill="white" stroke="#020046" stroke-width="0.75" stroke-miterlimit="10" stroke-linecap="round" stroke-linejoin="round"/>
<path d="M377.25 367.81L376.426 415.001L369.387 415.163L369.172 401.109L347.738 415.66L326.628 415.853C323.922 416.058 322.508 412.704 324.544 410.91L343.783 393.959L347.3 368.297L377.25 367.81Z" fill="#063E24"/>
<path d="M346.781 373.987L377.15 373.539" stroke="white" stroke-width="0.75" stroke-miterlimit="10" stroke-linecap="round" stroke-linejoin="round"/>
<path d="M339.712 397.588L345.549 399.376" stroke="white" stroke-width="0.75" stroke-miterlimit="10" stroke-linecap="round" stroke-linejoin="round"/>
<path d="M335.933 401.109L342.108 403.381" stroke="white" stroke-width="0.75" stroke-miterlimit="10" stroke-linecap="round" stroke-linejoin="round"/>
<path d="M331.834 404.487L337.23 406.763" stroke="white" stroke-width="0.75" stroke-miterlimit="10" stroke-linecap="round" stroke-linejoin="round"/>
<path d="M388.31 368.995L394.846 222.486L428.901 219.78L417.474 370.069L388.31 368.995Z" fill="white" stroke="#020046" stroke-width="0.75" stroke-miterlimit="10" stroke-linecap="round" stroke-linejoin="round"/>
<path d="M417.815 367.368L416.545 415.464L409.966 415.658L409.744 401.154L387.758 415.231L367.193 415.412C364.487 415.617 363.073 412.263 365.109 410.469L384.348 393.518L387.865 367.856L417.815 367.368Z" fill="#063E24"/>
<path d="M387.346 373.545L417.715 373.096" stroke="white" stroke-width="0.75" stroke-miterlimit="10" stroke-linecap="round" stroke-linejoin="round"/>
<path d="M380.277 397.145L386.113 398.934" stroke="white" stroke-width="0.75" stroke-miterlimit="10" stroke-linecap="round" stroke-linejoin="round"/>
<path d="M376.498 400.667L382.673 402.939" stroke="white" stroke-width="0.75" stroke-miterlimit="10" stroke-linecap="round" stroke-linejoin="round"/>
<path d="M372.399 404.045L377.795 406.32" stroke="white" stroke-width="0.75" stroke-miterlimit="10" stroke-linecap="round" stroke-linejoin="round"/>
<path d="M350.384 201.859L348.978 285.039L427.74 287.202L436.512 201.889L350.384 201.859Z" fill="#1DDD83"/>
<path d="M402.049 92.616L435.788 112.777L436.722 161.32L442.937 241.064C442.937 241.064 435.612 245.547 422.336 243.937C418.056 243.418 413.55 242.968 407.96 240.614C385.028 230.955 388.946 218.156 388.946 218.156L389.002 145.73C389.002 145.73 406.231 106.541 402.049 92.616Z" fill="#1DD1DD"/>
<path d="M388.375 168.668L389.002 223.012C389.002 223.012 391.199 236.996 413.9 242.362C436.601 247.728 442.937 241.064 442.937 241.064C442.937 241.064 435.122 148.384 435.971 143.601" fill="#1DD1DD"/>
<path d="M388.375 168.668L389.002 223.012C389.002 223.012 391.199 236.996 413.9 242.362C436.601 247.728 442.937 241.064 442.937 241.064C442.937 241.064 435.122 148.384 435.971 143.601" stroke="#020046" stroke-width="0.75" stroke-miterlimit="10" stroke-linecap="round" stroke-linejoin="round"/>
<path d="M434.431 208.68C428.297 205.789 422.283 202.699 416.405 199.416Z" fill="#1DD1DD"/>
<path d="M434.431 208.68C428.297 205.789 422.283 202.699 416.405 199.416" stroke="#020046" stroke-width="0.75" stroke-miterlimit="10" stroke-linecap="round" stroke-linejoin="round"/>
<path d="M412.043 104.319C418.478 116.407 419.576 121.739 419.576 121.739H408.067L413.718 135.782L389.003 168.668" fill="#1DD1DD"/>
<path d="M412.043 104.319C418.478 116.407 419.576 121.739 419.576 121.739H408.067L413.718 135.782L389.003 168.668" stroke="#020046" stroke-width="0.75" stroke-miterlimit="10" stroke-linecap="round" stroke-linejoin="round"/>
<path d="M378.32 92.616L347.397 112.777V160.533L340.845 241.064C340.845 241.064 346.85 245.633 358.996 244.037C362.926 243.521 367.764 242.975 372.902 240.614C393.919 230.955 390.328 218.156 390.328 218.156L390.277 145.73C390.277 145.73 374.488 106.541 378.32 92.616Z" fill="#1DD1DD"/>
<path d="M386.616 170.335C386.616 171.462 385.765 172.375 384.714 172.375C383.664 172.375 382.812 171.462 382.812 170.335C382.812 169.208 383.663 168.295 384.714 168.295C385.765 168.296 386.616 169.209 386.616 170.335Z" fill="#1DD1DD" stroke="#020046" stroke-width="0.75" stroke-miterlimit="10" stroke-linecap="round" stroke-linejoin="round"/>
<path d="M386.616 185.35C386.616 186.477 385.765 187.39 384.714 187.39C383.664 187.39 382.812 186.477 382.812 185.35C382.812 184.223 383.663 183.31 384.714 183.31C385.765 183.31 386.616 184.223 386.616 185.35Z" fill="#1DD1DD" stroke="#020046" stroke-width="0.75" stroke-miterlimit="10" stroke-linecap="round" stroke-linejoin="round"/>
<path d="M386.616 200.364C386.616 201.491 385.765 202.404 384.714 202.404C383.664 202.404 382.812 201.491 382.812 200.364C382.812 199.237 383.663 198.324 384.714 198.324C385.765 198.324 386.616 199.237 386.616 200.364Z" fill="#1DD1DD" stroke="#020046" stroke-width="0.75" stroke-miterlimit="10" stroke-linecap="round" stroke-linejoin="round"/>
<path d="M347.176 157.705C347.954 162.489 340.846 241.064 340.846 241.064C340.846 241.064 346.653 247.728 367.459 242.362C388.265 236.996 390.278 223.012 390.278 223.012L389.692 144.121" fill="#1DD1DD"/>
<path d="M347.176 157.705C347.954 162.489 340.846 241.064 340.846 241.064C340.846 241.064 346.653 247.728 367.459 242.362C388.265 236.996 390.278 223.012 390.278 223.012L389.692 144.121" stroke="#020046" stroke-width="0.75" stroke-miterlimit="10" stroke-linecap="round" stroke-linejoin="round"/>
<path d="M348.237 208.68C353.859 205.789 359.371 202.699 364.758 199.416Z" fill="#1DD1DD"/>
<path d="M348.237 208.68C353.859 205.789 359.371 202.699 364.758 199.416" stroke="#020046" stroke-width="0.75" stroke-miterlimit="10" stroke-linecap="round" stroke-linejoin="round"/>
<path d="M369.161 104.319C363.264 116.407 362.257 121.739 362.257 121.739H373.46L367.627 135.782L389.864 167.141" fill="#1DD1DD"/>
<path d="M369.161 104.319C363.264 116.407 362.257 121.739 362.257 121.739H373.46L367.627 135.782L389.864 167.141" stroke="#020046" stroke-width="0.75" stroke-miterlimit="10" stroke-linecap="round" stroke-linejoin="round"/>
<path d="M402.049 92.616C405.735 104.889 392.791 136.781 389.668 144.177C386.805 136.781 374.942 104.889 378.32 92.616" fill="white"/>
<path d="M402.049 92.616C405.735 104.889 392.791 136.781 389.668 144.177C386.805 136.781 374.942 104.889 378.32 92.616" stroke="#020046" stroke-width="0.75" stroke-miterlimit="10" stroke-linecap="round" stroke-linejoin="round"/>
<path d="M405.265 50.7799C402.365 47.3229 400.13 45.9789 396.353 43.9529L396.675 49.7559C388.902 49.2249 377.608 49.2509 373.285 53.2669C366.418 59.6449 364.744 80.1659 369.851 83.9369C373.425 86.5759 405.65 89.8839 411.781 81.0419C418.922 70.7419 408.145 53.7679 405.265 50.7799Z" fill="white" stroke="#020046" stroke-width="0.75" stroke-miterlimit="10" stroke-linecap="round" stroke-linejoin="round"/>
<path d="M399.533 64.5561C398.261 64.5511 397.087 64.9541 396.125 65.6341C396.774 52.8661 390.705 51.3541 379.956 51.9621C369.235 52.2491 371.058 65.8671 371.001 73.4181C371.183 81.5971 377.281 84.3571 384.085 83.5721C384.126 87.3051 382.95 94.2671 388.617 94.2921C391.945 94.6661 396.091 93.8941 396.118 89.7481C396.107 85.8971 396.205 78.9401 396.147 75.0921C404.856 80.3601 409.755 65.3041 399.533 64.5561Z" fill="white" stroke="#020046" stroke-width="0.75" stroke-miterlimit="10" stroke-linecap="round" stroke-linejoin="round"/>
<path d="M399.723 45.7719C397.044 43.6429 393.621 42.4829 389.709 42.8309C362.606 34.2089 360.93 71.0769 386.169 57.1829C386.948 60.7339 390.394 64.5879 393.564 65.9149L395.659 69.9389L396.051 66.1319C397.544 64.4539 401.092 63.9409 403.221 65.8729C407.7 57.4679 399.723 45.7719 399.723 45.7719Z" fill="white"/>
<path d="M396.73 71.1261C396.73 71.1261 396.487 67.1861 400.53 67.6391" stroke="#020046" stroke-width="0.75" stroke-miterlimit="10" stroke-linecap="round" stroke-linejoin="round"/>
<path d="M400.415 46.304C397.736 44.175 393.62 42.482 389.709 42.83C362.606 34.208 360.93 71.076 386.169 57.182C386.948 60.733 390.394 64.587 393.564 65.914L395.659 69.938L396.051 66.131C397.544 64.453 401.092 63.94 403.221 65.872" stroke="#020046" stroke-width="0.75" stroke-miterlimit="10" stroke-linecap="round" stroke-linejoin="round"/>
<path d="M405.941 43.952C411.599 43.952 416.186 39.572 416.186 34.169C416.186 28.766 411.599 24.386 405.941 24.386C400.283 24.386 395.696 28.766 395.696 34.169C395.696 39.572 400.283 43.952 405.941 43.952Z" stroke="#020046" stroke-width="0.75" stroke-miterlimit="10" stroke-linecap="round" stroke-linejoin="round"/>
<path d="M378.392 70.7109L375.346 68.8389L378.032 64.3149" stroke="#020046" stroke-width="0.75" stroke-miterlimit="10" stroke-linecap="round" stroke-linejoin="round"/>
<path d="M386.584 63.6839L383.634 62.4919" stroke="#020046" stroke-miterlimit="10" stroke-linecap="round" stroke-linejoin="round"/>
<path d="M373.976 62.6299L371.145 63.0359" stroke="#020046" stroke-miterlimit="10" stroke-linecap="round" stroke-linejoin="round"/>
<path d="M385.219 66.2609C385.219 67.0129 384.61 67.6219 383.858 67.6219C383.106 67.6219 382.497 67.0129 382.497 66.2609C382.497 65.5089 383.106 64.8999 383.858 64.8999C384.609 64.8999 385.219 65.5089 385.219 66.2609Z" fill="#020046"/>
<path d="M373.812 65.852C373.812 66.496 373.29 67.018 372.646 67.018C372.002 67.018 371.48 66.496 371.48 65.852C371.48 65.208 372.002 64.686 372.646 64.686C373.29 64.686 373.812 65.208 373.812 65.852Z" fill="#020046"/>
<path d="M375.108 74.9639C375.103 76.4269 376.284 77.6169 377.747 77.6229C379.21 77.6279 380.4 76.4469 380.406 74.9839L375.108 74.9639Z" stroke="#020046" stroke-width="0.75" stroke-miterlimit="10" stroke-linecap="round" stroke-linejoin="round"/>
<path d="M406.913 95.522L429.061 142.156L429.179 142.286L414.834 144.06C414.834 144.06 413.001 163.14 416.164 183.31C417.868 194.172 440.924 211.207 456.345 187.516C471.766 163.825 456.304 108.232 406.913 95.522Z" fill="#1DD1DD"/>
<path d="M414.359 153.284L445.592 148.733" stroke="#020046" stroke-width="0.75" stroke-miterlimit="10" stroke-linecap="round" stroke-linejoin="round"/>
<path d="M451.469 166.766L442.938 140.585L414.835 144.06C414.835 144.06 413.002 163.14 416.165 183.31C417.869 194.172 440.925 211.207 456.346 187.516C461.905 178.976 463.451 166.291 460.841 152.963" stroke="#020046" stroke-width="0.75" stroke-miterlimit="10" stroke-linecap="round" stroke-linejoin="round"/>
<path d="M411.594 108.238C411.594 108.238 408.611 104.747 406.501 105.455C404.39 106.163 404.489 109.836 408.155 113.602C411.82 117.368 411.594 108.238 411.594 108.238Z" fill="white" stroke="#020046" stroke-width="0.75" stroke-miterlimit="10" stroke-linecap="round" stroke-linejoin="round"/>
<path d="M420.389 101.479L418.498 101.403L406.73 100.929L408.698 131.569L417.271 131.914L419.161 131.99L427.734 132.335L432.157 101.952L420.389 101.479Z" fill="white" stroke="#020046" stroke-width="0.75" stroke-miterlimit="10" stroke-linecap="round" stroke-linejoin="round"/>
<path d="M408.146 122.987L428.973 123.825L431.242 108.236L407.137 107.266L408.146 122.987Z" fill="#16A663" stroke="#020046" stroke-width="0.75" stroke-miterlimit="10" stroke-linecap="round" stroke-linejoin="round"/>
<path d="M429.857 98.7999L409.509 97.9809C408.726 97.9499 408.117 97.2889 408.148 96.5059L408.256 93.8299C408.287 93.0469 408.948 92.4379 409.731 92.4689L430.079 93.2879C430.862 93.3189 431.471 93.9799 431.44 94.7629L431.332 97.4389C431.3 98.2219 430.64 98.8309 429.857 98.7999Z" fill="#020046"/>
<path d="M433.293 102.473L405.789 101.366C404.766 101.325 403.969 100.462 404.01 99.4378L404.087 97.5178C404.128 96.4948 404.991 95.6978 406.015 95.7388L433.519 96.8458C434.542 96.8868 435.339 97.7498 435.298 98.7738L435.221 100.694C435.179 101.718 434.316 102.514 433.293 102.473Z" fill="#020046"/>
<path d="M433.315 119.324C433.315 119.324 433.8 109.726 431.95 107.669C430.1 105.612 422.1 103.604 420.351 105.17C418.603 106.736 419.772 109.707 422.825 110.227C425.878 110.746 426.085 111.131 426.085 111.131L426.894 116.897L433.315 119.324Z" fill="white" stroke="#020046" stroke-width="0.75" stroke-miterlimit="10" stroke-linecap="round" stroke-linejoin="round"/>
<path d="M410.328 118.337C410.654 117.3 411.206 116.254 414.531 116.403L414.499 116.312C411.589 114.708 412.173 112.479 413.357 111.433C415.207 109.797 422.203 111.492 425.666 112.3C429.128 113.109 433.688 118.051 433.688 118.051C433.688 118.051 436.26 120.038 436.744 135.128L436.564 141.375L422.589 142.997C422.589 142.997 422.102 139.261 421.085 137.436C420.068 135.61 419.696 132.534 419.653 131.145L419.607 131.012C414.384 129.172 410.562 126.362 411.097 124.17C411.41 122.89 411.962 122.198 413.806 122.311L413.775 122.298C410.708 120.909 409.901 119.695 410.328 118.337Z" fill="white"/>
<path d="M414.499 116.311C411.589 114.707 412.173 112.478 413.357 111.432C415.207 109.796 422.203 111.491 425.666 112.299C429.128 113.108 433.688 118.05 433.688 118.05C433.688 118.05 436.26 120.037 436.744 135.127L436.564 141.374L422.589 142.996C422.589 142.996 422.102 139.26 421.085 137.435C420.068 135.609 419.696 132.533 419.653 131.144" stroke="#020046" stroke-width="0.75" stroke-miterlimit="10" stroke-linecap="round" stroke-linejoin="round"/>
<path d="M428.446 120.813C428.446 120.813 425.427 118.238 418.49 116.917C411.553 115.597 410.754 116.978 410.328 118.336C409.902 119.694 410.708 120.908 413.775 122.295" stroke="#020046" stroke-width="0.75" stroke-miterlimit="10" stroke-linecap="round" stroke-linejoin="round"/>
<path d="M426.146 126.223C426.146 126.223 420.21 123.789 416.984 122.917C412.46 121.694 411.544 122.335 411.096 124.168C410.428 126.901 416.526 130.596 423.675 132.172" stroke="#020046" stroke-width="0.75" stroke-miterlimit="10" stroke-linecap="round" stroke-linejoin="round"/>
<path d="M550.941 374.312H560.206V314.162H550.941V374.312Z" fill="white" stroke="#A3A1AF" stroke-width="0.75" stroke-miterlimit="10"/>
<path d="M552.727 393.517H558.42C560.79 393.517 562.71 391.596 562.71 389.227V346.434C562.71 344.065 560.789 342.144 558.42 342.144H552.727C550.358 342.144 548.437 344.065 548.437 346.434V389.227C548.437 391.596 550.358 393.517 552.727 393.517Z" fill="#A3A1AF"/>
<path d="M519.014 389.215H521.288H589.859H595.25V395.398V402.355H589.859V395.398H521.288V402.355H515.896V395.398V389.215H519.014Z" fill="#A3A1AF"/>
<path d="M510.272 406.907C510.272 411.474 513.974 415.177 518.541 415.177C523.108 415.177 526.81 411.475 526.81 406.907C526.81 402.34 523.108 398.638 518.541 398.638C513.974 398.638 510.272 402.34 510.272 406.907Z" fill="white" stroke="#A3A1AF" stroke-width="0.75" stroke-miterlimit="10"/>
<path d="M515.373 406.907C515.373 408.657 516.792 410.076 518.542 410.076C520.292 410.076 521.711 408.657 521.711 406.907C521.711 405.157 520.292 403.738 518.542 403.738C516.792 403.738 515.373 405.158 515.373 406.907Z" fill="#A3A1AF"/>
<path d="M584.571 406.907C584.571 411.474 588.273 415.177 592.84 415.177C597.407 415.177 601.109 411.475 601.109 406.907C601.109 402.34 597.407 398.638 592.84 398.638C588.273 398.638 584.571 402.34 584.571 406.907Z" fill="white" stroke="#A3A1AF" stroke-width="0.75" stroke-miterlimit="10"/>
<path d="M589.671 406.907C589.671 408.657 591.09 410.076 592.84 410.076C594.59 410.076 596.009 408.657 596.009 406.907C596.009 405.157 594.59 403.738 592.84 403.738C591.09 403.739 589.671 405.158 589.671 406.907Z" fill="#A3A1AF"/>
<path d="M555.224 207.885L605.252 208.147C610.725 208.176 615.027 212.836 614.619 218.293L607.129 318.522C606.755 323.527 602.53 327.366 597.512 327.259L483.335 324.83C477.863 324.714 473.636 319.985 474.132 314.534C474.574 309.67 478.652 305.946 483.536 305.946L530.239 304.818C535.598 304.818 544.578 301.598 544.369 296.243L545.739 217.694C545.529 212.32 549.845 207.857 555.224 207.885Z" fill="white" stroke="#C4C1D2" stroke-width="0.75" stroke-miterlimit="10" stroke-linecap="round"/>
<path d="M600.387 218.853L588.903 303.564" stroke="#C4C1D2" stroke-width="0.75" stroke-miterlimit="10" stroke-linecap="round"/>
<path d="M540.983 302.925C541.117 302.768 573.954 302.925 573.954 302.925" stroke="#C4C1D2" stroke-width="0.75" stroke-miterlimit="10" stroke-linecap="round"/>
<path d="M428.017 353.046L424.549 388.079L448.936 390.494L452.562 355.476L428.017 353.046Z" fill="white" stroke="#063E24" stroke-width="0.75" stroke-miterlimit="10" stroke-linecap="round" stroke-linejoin="round"/>
<path d="M431.393 353.38L427.925 388.416" stroke="#063E24" stroke-width="0.75" stroke-miterlimit="10" stroke-linecap="round" stroke-linejoin="round"/>
<path d="M435.554 353.791L433.058 388.923" stroke="#063E24" stroke-width="0.75" stroke-miterlimit="10" stroke-linecap="round" stroke-linejoin="round"/>
<path d="M439.767 354.209L437.377 389.017" stroke="#063E24" stroke-width="0.75" stroke-miterlimit="10" stroke-linecap="round" stroke-linejoin="round"/>
<path d="M444.091 354.637L441.25 389.4" stroke="#063E24" stroke-width="0.75" stroke-miterlimit="10" stroke-linecap="round" stroke-linejoin="round"/>
<path d="M448.576 355.081L445.697 390.778" stroke="#063E24" stroke-width="0.75" stroke-miterlimit="10" stroke-linecap="round" stroke-linejoin="round"/>
<path d="M382.563 415.153L455.689 415.464L453.87 382.038L419.316 383.439L415.288 396.207L382.563 415.153Z" fill="white" stroke="#063E24" stroke-width="0.75" stroke-miterlimit="10" stroke-linecap="round" stroke-linejoin="round"/>
<path d="M402.632 400.568L406.556 408.008" stroke="#063E24" stroke-width="0.75" stroke-miterlimit="10" stroke-linecap="round" stroke-linejoin="round"/>
<path d="M408.431 397.814L412.354 405.254" stroke="#063E24" stroke-width="0.75" stroke-miterlimit="10" stroke-linecap="round" stroke-linejoin="round"/>
<path d="M393.597 412.295H446.919" stroke="#063E24" stroke-width="0.75" stroke-miterlimit="10" stroke-linecap="round" stroke-linejoin="round"/>
<path d="M469.826 354.009V389.213H494.332L494.491 354.009H469.826Z" fill="white" stroke="#063E24" stroke-width="0.75" stroke-miterlimit="10" stroke-linecap="round" stroke-linejoin="round"/>
<path d="M473.219 354.009V389.215" stroke="#063E24" stroke-width="0.75" stroke-miterlimit="10" stroke-linecap="round" stroke-linejoin="round"/>
<path d="M477.399 354.008L478.377 389.214" stroke="#063E24" stroke-width="0.75" stroke-miterlimit="10" stroke-linecap="round" stroke-linejoin="round"/>
<path d="M481.633 354.009L482.684 388.882" stroke="#063E24" stroke-width="0.75" stroke-miterlimit="10" stroke-linecap="round" stroke-linejoin="round"/>
<path d="M485.979 354.009L486.576 388.882" stroke="#063E24" stroke-width="0.75" stroke-miterlimit="10" stroke-linecap="round" stroke-linejoin="round"/>
<path d="M490.485 354.009L491.137 389.816" stroke="#063E24" stroke-width="0.75" stroke-miterlimit="10" stroke-linecap="round" stroke-linejoin="round"/>
<path d="M430.8 415.153L503.926 415.464L500.381 382.108L467.552 383.439L463.524 396.207L430.8 415.153Z" fill="white" stroke="#063E24" stroke-width="0.75" stroke-miterlimit="10" stroke-linecap="round" stroke-linejoin="round"/>
<path d="M450.869 400.568L454.792 408.008" stroke="#063E24" stroke-width="0.75" stroke-miterlimit="10" stroke-linecap="round" stroke-linejoin="round"/>
<path d="M456.667 397.814L460.591 405.254" stroke="#063E24" stroke-width="0.75" stroke-miterlimit="10" stroke-linecap="round" stroke-linejoin="round"/>
<path d="M441.834 412.295H495.155" stroke="#063E24" stroke-width="0.75" stroke-miterlimit="10" stroke-linecap="round" stroke-linejoin="round"/>
<path d="M476.092 363.198H416.151C416.151 363.198 421.852 266.123 445.697 264.922C474.465 263.472 488.277 264.922 488.277 264.922L476.092 363.198Z" fill="#063E24"/>
<path d="M417.479 351.698L477.68 350.391" stroke="white" stroke-width="0.75" stroke-miterlimit="10" stroke-linecap="round" stroke-linejoin="round"/>
<path d="M569.202 261.354H528.26C477.955 257.77 457.996 269.897 457.996 288.725C457.996 301.456 460.575 368.69 460.575 368.69L505.261 367.373L502.371 306.334C502.371 306.334 534.592 310.685 554.642 304.946C574.694 299.208 569.202 261.354 569.202 261.354Z" fill="#063E24"/>
<path d="M564.046 297.935C561.813 301.225 558.769 303.765 554.643 304.946C534.592 310.684 502.372 306.334 502.372 306.334" stroke="#6FBBEF" stroke-miterlimit="10" stroke-linecap="round"/>
<path d="M505.261 367.373L460.575 368.69C460.575 368.69 457.996 301.455 457.996 288.725C457.996 269.897 477.955 257.771 528.26 261.354" stroke="#6FBBEF" stroke-miterlimit="10" stroke-linecap="round"/>
<path d="M501.974 297.934L503.008 319.778" stroke="#6FBBEF" stroke-miterlimit="10" stroke-linecap="round"/>
<path d="M530.453 259.31L570.348 259.545C570.348 259.545 575.193 298.337 560.206 304.818C545.219 311.299 502.372 306.333 502.372 306.333" fill="#063E24"/>
<path d="M502.372 306.334L507.644 367.83L455.735 368.69C455.735 368.69 449.436 294.576 454.649 280.676C459.862 266.776 466.348 256.777 530.454 259.31" fill="#063E24"/>
<path d="M454.819 356.71L506.774 355.738" stroke="white" stroke-width="0.75" stroke-miterlimit="10" stroke-linecap="round" stroke-linejoin="round"/>
<path d="M507.644 367.83L502.372 306.334L501.974 297.934" stroke="white" stroke-width="0.75" stroke-miterlimit="10" stroke-linecap="round" stroke-linejoin="round"/>
<path d="M530.453 259.31C466.347 256.776 459.861 266.775 454.648 280.676C449.435 294.576 455.734 368.69 455.734 368.69" stroke="white" stroke-width="0.75" stroke-miterlimit="10" stroke-linecap="round" stroke-linejoin="round"/>
<path d="M454.095 178.38C461.065 184.707 479.467 204.548 479.467 204.548L494.776 189.778C494.776 189.778 474.201 164.307 470.784 161.316C467.731 158.645 465.775 160.568 466.315 163.882C465.39 163.124 459.365 158.179 456.13 157.326C452.724 156.427 451.786 158.879 452.396 159.621L452.981 159.819L452.893 159.839C452.544 159.677 452.219 159.544 451.933 159.45C448.645 158.375 447.433 160.889 449.042 162.183L449.196 162.234C448.744 162.201 448.358 162.268 448.07 162.473C446.6 163.519 446.98 165.25 448.216 166.049C446.827 165.593 446.062 165.914 445.599 166.575C444.541 168.088 445.175 170.284 454.095 178.38ZM448.703 166.201L448.687 166.226C448.53 166.162 448.378 166.103 448.234 166.055L448.703 166.201Z" fill="white"/>
<path d="M457.373 172.598C449.298 165.333 446.788 165.16 445.6 166.575C443.897 168.603 447.422 171.74 454.095 178.38C460.768 185.02 479.467 204.548 479.467 204.548L494.776 189.778C494.776 189.778 474.201 164.307 470.784 161.316C467.367 158.326 465.389 161.606 466.667 165.515C467.945 169.423 468.707 171.189 468.707 171.189C468.707 171.189 467.465 176.002 471.122 180.488" stroke="#020046" stroke-width="0.75" stroke-miterlimit="10" stroke-linecap="round" stroke-linejoin="round"/>
<path d="M461.808 170.284C461.808 170.284 450.782 160.545 448.071 162.474C446.601 163.52 446.982 165.252 448.219 166.05" stroke="#020046" stroke-width="0.75" stroke-miterlimit="10" stroke-linecap="round" stroke-linejoin="round"/>
<path d="M463.925 167.09C463.925 167.09 455.369 160.573 451.935 159.451C448.647 158.376 447.435 160.89 449.044 162.184" stroke="#020046" stroke-width="0.75" stroke-miterlimit="10" stroke-linecap="round" stroke-linejoin="round"/>
<path d="M466.159 163.755C466.159 163.755 459.624 158.027 456.131 157.105C452.725 156.206 451.787 158.879 452.397 159.621" stroke="#020046" stroke-width="0.75" stroke-miterlimit="10" stroke-linecap="round" stroke-linejoin="round"/>
<path d="M538.235 213.32L492.637 178.645L468.549 201.183L502.251 251.715L538.235 213.32Z" fill="#16A663"/>
<path d="M538.235 213.32L492.637 178.645L468.549 201.183L502.251 251.715L538.235 213.32Z" stroke="#020046" stroke-width="0.75" stroke-miterlimit="10" stroke-linecap="round" stroke-linejoin="round"/>
<mask id="mask0_4_415" style="mask-type:luminance" maskUnits="userSpaceOnUse" x="472" y="183" width="67" height="69">
<path d="M472.516 207.13L502.251 251.715L538.235 213.32L498.717 183.268L472.516 207.13Z" fill="white"/>
</mask>
<g mask="url(#mask0_4_415)">
<path d="M514.033 192.61C512.938 191.129 511.31 190.192 509.507 190.019C505.998 189.683 502.903 192.347 502.607 195.957C502.311 199.567 504.926 202.778 508.434 203.114C510.423 203.304 512.359 202.531 513.693 201.034C514.788 202.515 516.415 203.452 518.219 203.625C521.728 203.961 524.823 201.297 525.118 197.687C525.414 194.077 522.8 190.866 519.291 190.529C517.303 190.339 515.367 191.112 514.033 192.61Z" stroke="white" stroke-width="0.75" stroke-miterlimit="10" stroke-linecap="round" stroke-linejoin="round"/>
<path d="M488.447 206.078C487.352 204.597 485.724 203.66 483.921 203.487C480.412 203.151 477.317 205.814 477.021 209.425C476.725 213.035 479.34 216.246 482.848 216.582C484.837 216.773 486.773 215.999 488.107 214.502C489.202 215.983 490.83 216.92 492.633 217.093C496.142 217.429 499.237 214.765 499.532 211.155C499.828 207.545 497.214 204.334 493.705 203.997C491.717 203.807 489.781 204.58 488.447 206.078Z" stroke="white" stroke-width="0.75" stroke-miterlimit="10" stroke-linecap="round" stroke-linejoin="round"/>
<path d="M481.856 187.101C480.761 185.62 479.133 184.683 477.33 184.51C473.821 184.174 470.726 186.838 470.43 190.448C470.134 194.058 472.749 197.269 476.257 197.605C478.246 197.795 480.182 197.022 481.516 195.525C482.611 197.006 484.238 197.943 486.042 198.116C489.551 198.452 492.646 195.788 492.941 192.178C493.237 188.568 490.623 185.357 487.114 185.021C485.126 184.83 483.19 185.603 481.856 187.101Z" stroke="white" stroke-width="0.75" stroke-miterlimit="10" stroke-linecap="round" stroke-linejoin="round"/>
</g>
<path d="M494.395 187.259L475.328 204.658" stroke="#020046" stroke-width="0.75" stroke-miterlimit="10" stroke-linecap="round" stroke-linejoin="round"/>
<path d="M506.267 263.083C506.267 263.083 510.026 208.6 528.148 185.812C539.572 171.447 548.857 168.009 556.679 168.609C556.679 168.609 577.417 195.443 581.327 230.702C585.236 265.961 583.933 275.832 549.237 274.725C514.54 273.617 506.267 263.083 506.267 263.083Z" fill="#16A663"/>
<mask id="mask1_4_415" style="mask-type:luminance" maskUnits="userSpaceOnUse" x="510" y="176" width="73" height="72">
<path d="M582.77 247.528C582.574 242.701 582.039 237.128 581.327 230.702C579.167 211.22 571.871 194.321 565.772 183.089L537.118 176.285C534.281 178.728 531.296 181.853 528.148 185.812C519.075 197.222 513.602 216.576 510.399 233.06L582.77 247.528Z" fill="white"/>
</mask>
<g mask="url(#mask1_4_415)">
<path d="M531.605 184.176C530.51 182.695 528.883 181.758 527.079 181.585C523.57 181.249 520.475 183.912 520.18 187.523C519.884 191.133 522.498 194.344 526.007 194.68C527.996 194.871 529.932 194.098 531.266 192.6C532.361 194.081 533.988 195.018 535.792 195.191C539.301 195.527 542.396 192.863 542.691 189.253C542.987 185.643 540.373 182.432 536.864 182.096C534.875 181.905 532.939 182.678 531.605 184.176Z" stroke="white" stroke-width="0.75" stroke-miterlimit="10" stroke-linecap="round" stroke-linejoin="round"/>
<path d="M557.723 204.577C556.628 203.096 555.001 202.159 553.197 201.986C549.688 201.65 546.593 204.313 546.298 207.924C546.002 211.534 548.616 214.745 552.125 215.081C554.114 215.272 556.05 214.499 557.384 213.001C558.479 214.482 560.107 215.419 561.91 215.592C565.419 215.928 568.514 213.264 568.809 209.654C569.105 206.044 566.491 202.833 562.982 202.497C560.993 202.307 559.057 203.079 557.723 204.577Z" stroke="white" stroke-width="0.75" stroke-miterlimit="10" stroke-linecap="round" stroke-linejoin="round"/>
<path d="M519.021 214.641C517.926 213.16 516.299 212.223 514.495 212.05C510.986 211.714 507.891 214.378 507.596 217.988C507.3 221.598 509.914 224.809 513.423 225.145C515.412 225.335 517.348 224.562 518.682 223.065C519.777 224.546 521.405 225.483 523.208 225.656C526.717 225.992 529.812 223.328 530.107 219.718C530.403 216.108 527.789 212.897 524.28 212.56C522.291 212.37 520.355 213.143 519.021 214.641Z" stroke="white" stroke-width="0.75" stroke-miterlimit="10" stroke-linecap="round" stroke-linejoin="round"/>
<path d="M547.828 224.85C546.733 223.369 545.106 222.432 543.302 222.259C539.793 221.923 536.698 224.586 536.403 228.197C536.107 231.807 538.721 235.018 542.23 235.354C544.219 235.545 546.155 234.772 547.489 233.274C548.584 234.755 550.211 235.692 552.015 235.865C555.524 236.201 558.619 233.537 558.914 229.927C559.21 226.317 556.596 223.106 553.087 222.77C551.098 222.579 549.163 223.352 547.828 224.85Z" stroke="white" stroke-width="0.75" stroke-miterlimit="10" stroke-linecap="round" stroke-linejoin="round"/>
</g>
<path d="M506.267 263.083C506.267 263.083 510.026 208.6 528.148 185.812C539.572 171.447 548.857 168.009 556.679 168.609C556.679 168.609 577.417 195.443 581.327 230.702C585.236 265.961 583.933 275.832 549.237 274.725C514.54 273.617 506.267 263.083 506.267 263.083Z" stroke="#020046" stroke-width="0.75" stroke-miterlimit="10" stroke-linecap="round" stroke-linejoin="round"/>
<path d="M503.677 252.999C503.677 252.999 516.223 237.998 517.418 236.694C518.612 235.391 541.961 230.702 541.961 230.702L540.458 255.4L503.677 252.999Z" fill="white" stroke="#020046" stroke-width="0.75" stroke-miterlimit="10" stroke-linecap="round" stroke-linejoin="round"/>
<path d="M554.101 168.564C559.754 168.321 564.667 170.381 569.066 172.439C579.081 177.123 606.395 193.932 616.349 216.604C626.303 239.276 617.326 254.968 586.268 258.917C555.209 262.866 537.393 255.699 537.393 255.699L539.165 227.347L576.5 225.23L567.541 199.011L554.101 168.564Z" fill="#16A663"/>
<mask id="mask2_4_415" style="mask-type:luminance" maskUnits="userSpaceOnUse" x="537" y="174" width="84" height="87">
<path d="M616.349 216.603C607.36 196.128 584.216 180.439 572.437 174.139C568.25 176.418 556.948 180.943 553.609 182.72L566.466 197.804L576.5 225.23L539.165 227.347L537.393 255.699C537.393 255.699 555.209 262.866 586.268 258.917C617.327 254.967 626.303 239.276 616.349 216.603Z" fill="white"/>
</mask>
<g mask="url(#mask2_4_415)">
<path d="M572.988 183.64C571.893 182.159 570.266 181.222 568.462 181.049C564.953 180.713 561.858 183.377 561.562 186.987C561.266 190.597 563.88 193.808 567.389 194.144C569.378 194.335 571.314 193.562 572.648 192.064C573.743 193.545 575.371 194.482 577.174 194.655C580.683 194.991 583.778 192.327 584.073 188.717C584.369 185.107 581.755 181.896 578.246 181.56C576.258 181.369 574.322 182.142 572.988 183.64Z" stroke="white" stroke-width="0.75" stroke-miterlimit="10" stroke-linecap="round" stroke-linejoin="round"/>
<path d="M603.537 196.841C602.442 195.36 600.814 194.423 599.011 194.25C595.502 193.914 592.407 196.578 592.111 200.188C591.815 203.798 594.43 207.009 597.938 207.345C599.927 207.536 601.863 206.762 603.197 205.265C604.292 206.746 605.919 207.683 607.723 207.856C611.232 208.192 614.327 205.528 614.622 201.918C614.918 198.308 612.304 195.097 608.795 194.76C606.807 194.57 604.871 195.343 603.537 196.841Z" stroke="white" stroke-width="0.75" stroke-miterlimit="10" stroke-linecap="round" stroke-linejoin="round"/>
<path d="M584.266 218.178C583.171 216.697 581.543 215.76 579.74 215.587C576.231 215.251 573.136 217.915 572.84 221.525C572.544 225.135 575.159 228.346 578.667 228.682C580.656 228.872 582.592 228.1 583.926 226.602C585.021 228.083 586.648 229.02 588.452 229.193C591.961 229.529 595.056 226.865 595.351 223.255C595.647 219.645 593.033 216.434 589.524 216.098C587.536 215.907 585.6 216.68 584.266 218.178Z" stroke="white" stroke-width="0.75" stroke-miterlimit="10" stroke-linecap="round" stroke-linejoin="round"/>
<path d="M621.822 233.322C620.727 231.841 619.099 230.904 617.296 230.731C613.787 230.395 610.692 233.059 610.396 236.669C610.1 240.279 612.715 243.49 616.223 243.826C618.212 244.016 620.148 243.244 621.482 241.746C622.577 243.227 624.205 244.164 626.008 244.337C629.517 244.673 632.612 242.009 632.907 238.399C633.203 234.789 630.589 231.578 627.08 231.242C625.092 231.051 623.156 231.823 621.822 233.322Z" stroke="white" stroke-width="0.75" stroke-miterlimit="10" stroke-linecap="round" stroke-linejoin="round"/>
<path d="M562.339 235.993C561.244 234.512 559.617 233.575 557.813 233.402C554.304 233.066 551.209 235.73 550.914 239.34C550.618 242.95 553.232 246.161 556.741 246.497C558.73 246.688 560.666 245.915 562 244.417C563.095 245.898 564.723 246.835 566.526 247.008C570.035 247.344 573.13 244.68 573.425 241.07C573.721 237.46 571.107 234.249 567.598 233.913C565.609 233.722 563.673 234.495 562.339 235.993Z" stroke="white" stroke-width="0.75" stroke-miterlimit="10" stroke-linecap="round" stroke-linejoin="round"/>
<path d="M587.507 258.019C586.412 256.538 584.785 255.601 582.981 255.428C579.472 255.092 576.377 257.755 576.082 261.366C575.786 264.976 578.4 268.187 581.909 268.523C583.898 268.714 585.834 267.94 587.168 266.443C588.263 267.924 589.89 268.861 591.694 269.034C595.203 269.37 598.298 266.706 598.593 263.096C598.889 259.486 596.275 256.275 592.766 255.938C590.777 255.748 588.841 256.521 587.507 258.019Z" stroke="white" stroke-width="0.75" stroke-miterlimit="10" stroke-linecap="round" stroke-linejoin="round"/>
</g>
<path d="M554.101 168.564C559.754 168.321 564.667 170.381 569.066 172.439C579.081 177.123 606.797 194.877 616.751 217.55C626.705 240.222 617.327 254.968 586.268 258.917C555.209 262.866 537.393 255.699 537.393 255.699L539.165 227.347L576.5 225.23L571.662 211.12" stroke="#020046" stroke-width="0.75" stroke-miterlimit="10" stroke-linecap="round" stroke-linejoin="round"/>
<path d="M546.5 229.062L544.893 256.024" stroke="#020046" stroke-width="0.75" stroke-miterlimit="10" stroke-linecap="round" stroke-linejoin="round"/>
<path d="M574.092 225.366L584.096 225.303" stroke="#020046" stroke-width="0.75" stroke-miterlimit="10" stroke-linecap="round" stroke-linejoin="round"/>
<path d="M560.676 119.986C567.028 123.144 570.77 130.665 569.977 138.658C568.883 149.685 559.28 157.88 559.28 157.88L558.608 139.532L557.552 138.97L560.676 119.986Z" fill="#063E24"/>
<path d="M563.158 142.236C561.768 142.231 560.484 142.671 559.433 143.414L559.447 139.581C559.47 133.505 555.121 128.517 549.785 128.498L541.758 128.468C536.421 128.448 532.036 133.403 532.014 139.48L531.968 151.923C531.945 157.999 536.294 162.987 541.63 163.006L546.272 163.023L546.247 169.726C546.237 172.475 548.477 174.732 551.226 174.742L554.411 174.754C557.16 174.764 559.417 172.524 559.427 169.775L559.455 162.2L559.456 161.778L559.484 154.203C559.484 154.051 559.471 153.902 559.458 153.753C560.492 154.477 561.75 154.907 563.112 154.913C566.641 154.926 569.513 152.099 569.526 148.598C569.538 145.097 566.687 142.249 563.158 142.236Z" fill="white" stroke="#063E24" stroke-width="0.75" stroke-miterlimit="10" stroke-linecap="round" stroke-linejoin="round"/>
<path d="M560.094 149.418C560.094 149.418 559.829 145.111 564.248 145.606" stroke="#063E24" stroke-width="0.75" stroke-miterlimit="10" stroke-linecap="round" stroke-linejoin="round"/>
<path d="M563.365 121.701C560.436 119.374 556.694 118.105 552.418 118.486C531.966 111.299 524.351 130.735 531.613 135.992C533.752 137.54 544.386 138.324 548.548 134.175C548.825 135.02 549.241 136.087 549.875 137.447C551.246 140.391 554.259 142.471 556.632 143.72L554.914 151.816C554.914 151.816 544.999 149.41 538.906 149.456C532.813 149.502 531.966 151.922 531.966 151.922C531.966 151.922 532.018 160.262 538.311 162.322C543.649 164.069 546.27 163.023 546.27 163.023C546.27 163.023 553.009 161.283 556.246 157.743C557.667 156.189 558.306 155.234 559.067 153.718L559.351 143.958C559.588 143.775 559.76 143.649 559.978 143.498C559.978 143.498 561.461 142.234 563.092 142.236C564.606 142.237 566.078 142.817 567.189 143.675C568.979 140.229 563.365 121.701 563.365 121.701Z" fill="#063E24"/>
<path d="M545.87 173.653C545.87 173.653 547.39 176.289 553.146 175.514C558.902 174.739 552.788 169.583 549.981 168.794C547.173 168.006 543.644 171.047 545.87 173.653Z" fill="white" stroke="#063E24" stroke-width="0.75" stroke-miterlimit="10" stroke-linecap="round" stroke-linejoin="round"/>
<path d="M540.118 177.068C540.118 177.068 544.251 180.408 550.276 180.768C553.938 180.987 558.397 180.354 562.768 176.485" stroke="#063E24" stroke-width="0.75" stroke-miterlimit="10" stroke-linecap="round" stroke-linejoin="round"/>
<path d="M559.449 163.334C559.449 163.334 563.662 166.573 566.467 171.267C566.467 171.267 562.244 176.694 552.36 179.626L549.98 168.795L546.924 178.645C546.924 178.645 543.1 177.598 540.751 173.44C540.751 173.44 542.314 169.627 546.106 165.699C546.106 165.699 547.504 168.093 549.893 168.743C552.284 169.391 558.34 165.856 559.449 163.334Z" fill="white" stroke="#063E24" stroke-width="0.75" stroke-miterlimit="10" stroke-linecap="round" stroke-linejoin="round"/>
<path d="M540.596 148.491L537.393 146.523L540.217 141.766" stroke="#020046" stroke-width="0.75" stroke-miterlimit="10" stroke-linecap="round" stroke-linejoin="round"/>
<path d="M549.209 141.103L546.108 139.849" stroke="#020046" stroke-miterlimit="10" stroke-linecap="round" stroke-linejoin="round"/>
<path d="M535.952 139.994L532.977 140.422" stroke="#020046" stroke-miterlimit="10" stroke-linecap="round" stroke-linejoin="round"/>
<path d="M547.774 143.812C547.774 144.603 547.133 145.244 546.343 145.244C545.552 145.244 544.912 144.603 544.912 143.812C544.912 143.022 545.553 142.381 546.343 142.381C547.133 142.381 547.774 143.022 547.774 143.812Z" fill="#020046"/>
<path d="M535.78 143.383C535.78 144.06 535.231 144.609 534.554 144.609C533.877 144.609 533.328 144.06 533.328 143.383C533.328 142.706 533.877 142.157 534.554 142.157C535.231 142.157 535.78 142.706 535.78 143.383Z" fill="#020046"/>
<path d="M537.143 152.963C537.137 154.501 538.38 155.752 539.918 155.758C541.456 155.764 542.708 154.521 542.713 152.983L537.143 152.963Z" fill="white"/>
<path d="M254.212 206.976H298.601C302.06 206.976 304.604 210.218 303.781 213.577L293.69 254.788C293.106 257.174 290.967 258.853 288.51 258.853H236.41C232.575 258.853 229.994 254.926 231.514 251.405L249.316 210.194C250.16 208.241 252.085 206.976 254.212 206.976Z" fill="#063E24"/>
<path d="M255.061 210.158H296.067C298.409 210.158 300.131 212.353 299.574 214.627L290.198 252.918C289.802 254.534 288.354 255.67 286.691 255.67H238.52C235.924 255.67 234.176 253.011 235.206 250.628L251.746 212.337C252.317 211.015 253.62 210.158 255.061 210.158Z" fill="#1DD1DD"/>
<path d="M240.292 255.67H279.597C281.755 255.67 283.644 254.223 284.207 252.14L293.434 217.988C294.254 214.953 291.968 211.968 288.824 211.968H255.044C253.139 211.968 251.416 213.1 250.66 214.85L235.908 249.002C234.547 252.154 236.858 255.67 240.292 255.67Z" fill="white"/>
<path d="M240.882 215.511H290.196L290.394 214.778H241.274L240.882 215.511Z" fill="#063E24"/>
<path d="M289.26 218.976H239.47V219.709H289.062L289.26 218.976Z" fill="#063E24"/>
<path d="M288.125 223.174H239.47V223.907H287.927L288.125 223.174Z" fill="#063E24"/>
<path d="M286.991 227.372H237.992V228.105H286.793L286.991 227.372Z" fill="#063E24"/>
<path d="M285.857 231.571H236.295V232.303H285.659L285.857 231.571Z" fill="#063E24"/>
<path d="M225.161 244.897H259.122V244.164H225.553L225.161 244.897Z" fill="#063E24"/>
<path d="M267.139 235.768H230.045L229.653 236.501H266.941L267.139 235.768Z" fill="#063E24"/>
<path d="M266.004 239.967H227.799L227.407 240.699H265.806L266.004 239.967Z" fill="#063E24"/>
<path d="M46.665 56.0691H93.872C99.903 56.0691 104.793 60.9581 104.793 66.9901V86.2621V93.0021V114.117L93.69 103.923H46.665C40.634 103.923 35.744 99.0341 35.744 93.0021V66.9901C35.744 60.9581 40.633 56.0691 46.665 56.0691Z" fill="white" stroke="#C4C1D2" stroke-width="0.75" stroke-miterlimit="10" stroke-linecap="round" stroke-linejoin="round"/>
<path d="M89.262 73.687H55.377V93.962H89.262V73.687Z" fill="#D8D7E2"/>
<path d="M85.758 65.708H44.289V90.522H85.758V65.708Z" fill="white" stroke="#C4C1D2" stroke-width="0.75" stroke-miterlimit="10" stroke-linecap="round" stroke-linejoin="round"/>
<path d="M44.289 65.708L64.834 83.488L85.758 65.708" stroke="#C4C1D2" stroke-width="0.75" stroke-miterlimit="10" stroke-linecap="round" stroke-linejoin="round"/>
<path d="M44.289 90.521L57.484 77.127" stroke="#C4C1D2" stroke-width="0.75" stroke-miterlimit="10" stroke-linecap="round" stroke-linejoin="round"/>
<path d="M72.319 77.127L85.758 90.521" stroke="#C4C1D2" stroke-width="0.75" stroke-miterlimit="10" stroke-linecap="round" stroke-linejoin="round"/>
<path d="M115.454 267.864H104.951V415.464H115.454V267.864Z" fill="white" stroke="#020046" stroke-width="0.75" stroke-miterlimit="10" stroke-linecap="round" stroke-linejoin="round"/>
<path d="M615.625 267.864H605.122V415.464H615.625V267.864Z" fill="white" stroke="#020046" stroke-width="0.75" stroke-miterlimit="10" stroke-linecap="round" stroke-linejoin="round"/>
<path d="M641.223 270.534H83.738C80.639 270.534 78.126 268.021 78.126 264.922C78.126 261.823 80.638 259.31 83.738 259.31H641.223C644.322 259.31 646.835 261.823 646.835 264.922C646.835 268.021 644.322 270.534 641.223 270.534Z" fill="white" stroke="#020046" stroke-width="0.75" stroke-miterlimit="10" stroke-linecap="round" stroke-linejoin="round"/>
<path d="M288.889 179.05L288.888 179.051C289.347 176.133 288.542 175.663 288.542 175.663L287.997 176.378C288.323 175.261 288.344 174.396 287.856 174.034C286.031 172.681 283.124 174.333 278.644 179.139C273.799 184.337 263.712 187.935 263.712 187.935C264.992 184.46 266.665 174.738 263.798 174.577C259.445 174.333 257.952 184.134 255.129 187.517C252.306 190.9 239.471 205.111 239.471 205.111L259.066 212.001C259.066 212.001 267.971 200.423 277.093 196.334C286.215 192.245 289.337 185.288 289.582 182.758C289.825 180.226 288.889 179.05 288.889 179.05Z" fill="white"/>
<path d="M288.542 175.662C288.542 175.662 289.472 176.201 288.766 179.734C288.06 183.267 282.983 189.85 282.983 189.85" stroke="#020046" stroke-width="0.75" stroke-miterlimit="10" stroke-linecap="round" stroke-linejoin="round"/>
<path d="M288.889 179.05C288.889 179.05 289.825 180.227 289.581 182.757C289.337 185.287 286.215 192.244 277.092 196.333C267.97 200.422 259.065 212 259.065 212L239.47 205.11C239.47 205.11 252.305 190.899 255.128 187.516C257.952 184.133 259.445 174.332 263.797 174.576C266.664 174.737 264.991 184.458 263.711 187.934C263.711 187.934 271.889 185.192 277.037 180.604C282.342 175.876 285.67 171.645 287.855 174.034C289.578 175.918 283.167 185.796 281.107 187.517" stroke="#020046" stroke-width="0.75" stroke-miterlimit="10" stroke-linecap="round" stroke-linejoin="round"/>
<path d="M176.683 150.401L182.781 156.219L179.312 159.575L176.683 150.401Z" fill="white" stroke="#020046" stroke-width="0.75" stroke-miterlimit="10" stroke-linecap="round" stroke-linejoin="round"/>
<path d="M153.373 166.245C153.45 166.591 153.543 166.928 153.646 167.26C153.641 167.641 153.674 168.027 153.76 168.414L153.373 166.245L168.709 174.35L168.694 174.281L173.271 173.267C178.534 172.102 181.754 166.246 180.427 160.253L177.709 147.982C176.382 141.99 170.991 138.041 165.728 139.206L157.812 140.959C152.549 142.124 149.329 147.98 150.655 153.972L153.373 166.245Z" fill="white"/>
<path d="M180.427 160.254L177.71 147.983C176.383 141.991 170.991 138.042 165.728 139.207L157.812 140.96C152.549 142.125 149.329 147.981 150.655 153.974L153.373 166.245C153.45 166.591 153.543 166.928 153.646 167.26C153.641 167.641 153.674 168.027 153.76 168.414L154.558 168.786L155.056 185.335H171.259L170.501 173.882L173.273 173.268C178.533 172.102 181.754 166.246 180.427 160.254Z" fill="white" stroke="#020046" stroke-width="0.75" stroke-miterlimit="10" stroke-linecap="round" stroke-linejoin="round"/>
<path d="M154.078 161.463L155.394 157.202C155.394 157.202 170.87 154.754 177.741 138.339C180.294 132.239 175.971 126.419 168.938 126.366C160.042 126.299 152.106 131.313 152.106 131.313C152.106 131.313 131.5 140.769 138.154 161.62C138.154 161.62 141.688 173.82 155.135 174.35" fill="#063E24"/>
<path d="M145.776 164.762C146.194 168.025 149.2 170.328 152.49 169.907C155.78 169.486 158.108 166.499 157.69 163.236C157.272 159.973 154.266 157.67 150.976 158.091C147.686 158.512 145.358 161.499 145.776 164.762Z" fill="white"/>
<path d="M155.054 164.366C155.054 164.366 154.802 160.32 150.738 161.293" stroke="#020046" stroke-width="0.75" stroke-miterlimit="10" stroke-linecap="round" stroke-linejoin="round"/>
<path d="M121.266 137.734C129.775 130.093 125.861 111.307 114.155 108.524C100.048 105.17 90.052 122.921 79.411 106.826C68.769 90.73 54.521 94.375 49.708 108.888C44.895 123.401 60.384 138.405 75.967 137.383C91.549 136.36 95.888 126.074 101.567 133.902C107.227 141.705 115.982 142.479 121.266 137.734Z" stroke="#063E24" stroke-width="0.75" stroke-miterlimit="10" stroke-linecap="round" stroke-linejoin="round"/>
<path d="M137.749 141.18C137.749 143.416 135.936 145.228 133.701 145.228C131.465 145.228 129.653 143.415 129.653 141.18C129.653 138.944 131.466 137.132 133.701 137.132C135.937 137.131 137.749 138.944 137.749 141.18Z" stroke="#063E24" stroke-width="0.75" stroke-miterlimit="10" stroke-linecap="round" stroke-linejoin="round"/>
<path d="M146.96 189.252L154.799 179.951L174.698 180.621L181.926 188.714C181.926 188.714 168.431 189.252 146.96 189.252Z" fill="#063E24"/>
<path d="M190.829 245.347C209.479 255.977 226.81 261.663 233.299 257.523C246.248 249.261 266.734 206.308 266.734 206.308L245.765 193.456L221.897 216.938C221.897 216.938 197.352 193.94 184.984 188.915C179.618 186.735 149.941 187.755 149.941 187.755C149.941 187.755 147.022 188.649 145.647 189.253C129.203 196.475 125.315 220.963 119.956 255.107L119.833 258.882L191.145 259.517L190.829 245.347Z" fill="#063E24"/>
<path d="M221.322 216.404L226.801 221.938" stroke="white" stroke-width="0.75" stroke-miterlimit="10" stroke-linecap="round"/>
<path d="M241.329 197.82L263.712 212.4" stroke="white" stroke-width="0.75" stroke-miterlimit="10" stroke-linecap="round"/>
<path d="M148.804 188.325C148.804 188.325 161.224 187.885 165.365 187.934C169.51 187.983 181.926 188.714 181.926 188.714" stroke="white" stroke-width="0.75" stroke-miterlimit="10" stroke-linecap="round"/>
<path d="M169.846 155.938C169.901 156.934 170.753 157.696 171.749 157.641C172.745 157.586 173.507 156.734 173.452 155.738C173.397 154.742 172.545 153.98 171.549 154.035C170.552 154.09 169.79 154.942 169.846 155.938Z" fill="#020046"/>
<path d="M180.296 166.375C180.296 166.375 177.932 167.939 175.189 165.353" stroke="#020046" stroke-width="0.75" stroke-miterlimit="10"/>
<path d="M167.663 153.697C168.432 152.793 169.288 151.964 170.215 151.224" stroke="#020046" stroke-width="0.75" stroke-miterlimit="10"/>
<path d="M206.458 373.189L213.485 415.381L229.31 415.464L229.631 405.856L247.22 415.145C247.22 415.145 251.677 415.229 255.484 415.132C258.407 415.058 261.164 415.459 261.145 414.603C260.998 408.161 254.921 402.435 236.885 387.119L234.769 371.712L206.458 373.189Z" fill="#16A663" stroke="#020046" stroke-miterlimit="10"/>
<path d="M174.63 306.286L200.269 388.416H271.573L227.653 277.201L158.488 267.864L174.63 306.286Z" fill="white"/>
<path d="M162.728 277.957V272.662H161.728V275.577L162.728 277.957Z" fill="#16A663"/>
<path d="M260.155 379.55V378.55H228.263V363.564H260.155V362.564H228.263V347.578H255.445L255.05 346.578H228.263V331.592H249.132L248.737 330.592H228.263V315.606H242.819L242.424 314.606H228.263V299.62H236.506L236.111 298.62H228.263V278.748L227.653 277.203L227.263 277.15V298.62H211.879V275.073L210.879 274.938V298.62H195.495V272.861L194.495 272.726V298.62H179.112V272.664H178.112V298.62H171.408L171.828 299.62H178.112V314.606H177.226L177.538 315.606H178.112V317.443L179.112 320.646V315.606H194.495V330.592H182.217L182.529 331.592H194.495V346.578H187.207L187.519 347.578H194.495V362.564H192.198L192.51 363.564H194.495V369.923L195.495 373.126V363.564H210.879V378.55H197.189L197.501 379.55H210.879V388.416H211.879V379.55H227.263V388.416H228.263V379.55H260.155ZM194.496 314.604H179.113V299.618H194.496V314.604ZM210.879 362.564H195.495V347.578H210.879V362.564ZM210.879 346.577H195.495V331.591H210.879V346.577ZM210.879 330.591H195.495V315.605H210.879V330.591ZM210.879 314.604H195.495V299.618H210.879V314.604ZM227.263 378.55H211.879V363.564H227.263V378.55ZM227.263 362.564H211.879V347.578H227.263V362.564ZM227.263 346.577H211.879V331.591H227.263V346.577ZM227.263 330.591H211.879V315.605H227.263V330.591ZM227.263 314.604H211.879V299.618H227.263V314.604Z" fill="#16A663"/>
<path d="M174.63 306.286L200.269 388.416H271.573L227.653 277.201L158.488 267.864" stroke="#020046" stroke-miterlimit="10"/>
<path d="M241.69 374L250.324 415.386L265.159 415.464L265.48 405.856L279.265 415.464C276.221 415.546 287.526 415.229 291.333 415.133C294.256 415.059 297.013 415.46 296.994 414.604C296.847 408.162 290.77 402.436 272.734 387.12L270.617 371.713L241.69 374Z" fill="#16A663" stroke="#020046" stroke-miterlimit="10"/>
<path d="M214.743 307.914L235.856 388.416H286.991C286.991 388.416 260.314 290.233 248.396 277.201C236.477 264.169 197.833 264.922 197.833 264.922L214.743 307.914Z" fill="white"/>
<path d="M283.297 375.188H273.223V360.202H278.966C278.868 359.87 278.771 359.538 278.672 359.202H273.223V344.216H274.175C274.073 343.883 273.971 343.55 273.869 343.216H273.223V341.117C272.892 340.045 272.559 338.97 272.223 337.89V343.216H256.84V328.23H269.166C269.059 327.896 268.951 327.563 268.844 327.23H256.84V312.244H263.842C263.726 311.911 263.611 311.575 263.496 311.244H256.84V296.258H257.98C257.847 295.92 257.715 295.59 257.582 295.258H256.84V293.419C256.504 292.596 256.17 291.793 255.84 291.014V295.257H240.456V280.27H250.592C250.378 279.917 250.167 279.584 249.96 279.27H240.456V271.753C240.125 271.6 239.796 271.444 239.456 271.298V279.27H224.073V267.003C223.74 266.944 223.406 266.884 223.073 266.828V279.269H207.689V265.175C207.349 265.156 207.016 265.138 206.689 265.121V279.268H203.476L203.869 280.268H206.688V287.436L207.688 289.978V280.268H223.072V295.254H209.764L210.157 296.254H223.072V311.24H215.616L215.878 312.24H223.072V327.226H219.808L220.07 328.226H223.072V339.671L224.263 344.213H239.455V359.199H228.193L228.455 360.199H239.454V375.185H232.385L232.647 376.185H239.454V388.413H240.454V376.185H255.838V388.413H256.838V376.185H272.221V388.413H273.221V376.185H283.579C283.488 375.862 283.392 375.523 283.297 375.188ZM239.456 343.215H224.073V328.229H239.456V343.215ZM239.456 327.228H224.073V312.242H239.456V327.228ZM239.456 311.242H224.073V296.256H239.456V311.242ZM239.456 295.256H224.073V280.27H239.456V295.256ZM255.84 375.188H240.456V360.202H255.84V375.188ZM255.84 359.201H240.456V344.215H255.84V359.201ZM255.84 343.215H240.456V328.229H255.84V343.215ZM255.84 327.228H240.456V312.242H255.84V327.228ZM255.84 311.242H240.456V296.256H255.84V311.242ZM272.223 375.188H256.84V360.202H272.223V375.188ZM272.223 359.201H256.84V344.215H272.223V359.201Z" fill="#16A663"/>
<path d="M214.743 307.914L235.856 388.416H286.991C286.991 388.416 260.314 290.233 248.396 277.201C236.477 264.169 197.833 264.922 197.833 264.922" stroke="#020046" stroke-miterlimit="10"/>
<path d="M19.817 415.464H681.471" stroke="#020046" stroke-width="0.75" stroke-miterlimit="10" stroke-linecap="round" stroke-linejoin="round"/>
<path d="M472.274 258.996L520.952 259.085C526.005 259.094 528.618 255.173 526.787 250.327L514.027 216.542C512.197 211.696 506.617 207.76 501.563 207.75L452.885 207.661C447.832 207.652 445.219 211.573 447.05 216.419L459.81 250.204C461.641 255.051 467.221 258.987 472.274 258.996Z" fill="#063E24"/>
<path d="M479.622 230.695C480.193 232.84 482.394 234.583 484.538 234.587C486.682 234.591 487.958 232.855 487.387 230.71C486.816 228.564 484.615 226.822 482.471 226.818C480.327 226.813 479.051 228.549 479.622 230.695Z" fill="white"/>
<path d="M565.235 257.922L565.244 252.971C565.245 252.327 564.725 251.805 564.081 251.804L515.038 251.715C514.395 251.714 513.872 252.235 513.871 252.878L513.862 257.829C513.861 258.472 514.382 258.995 515.025 258.996L564.067 259.086C564.711 259.086 565.234 258.565 565.235 257.922Z" fill="#063E24"/>
<path d="M595.503 227.725H593.545H581.358L584.667 259.324H593.545H595.503H604.382L607.691 227.725H595.503Z" fill="white" stroke="#020046" stroke-width="0.75" stroke-miterlimit="10" stroke-linecap="round" stroke-linejoin="round"/>
<path d="M583.74 250.473H605.309L607.006 234.26H582.042L583.74 250.473Z" fill="#1DD1DD" stroke="#020046" stroke-width="0.75" stroke-miterlimit="10" stroke-linecap="round" stroke-linejoin="round"/>
<path d="M605.181 224.561H584.108C583.297 224.561 582.64 223.904 582.64 223.093V220.322C582.64 219.511 583.297 218.854 584.108 218.854H605.181C605.992 218.854 606.649 219.511 606.649 220.322V223.093C606.65 223.904 605.992 224.561 605.181 224.561Z" fill="#04341E"/>
<path d="M608.887 228.216H580.402C579.342 228.216 578.483 227.357 578.483 226.297V224.309C578.483 223.249 579.342 222.39 580.402 222.39H608.887C609.947 222.39 610.806 223.249 610.806 224.309V226.297C610.806 227.357 609.947 228.216 608.887 228.216Z" fill="#04341E"/>
<path d="M347.313 1.12109H328.121H314.729H305.729C301.566 1.12109 298.191 4.4961 298.191 8.6591V26.6141C298.191 26.9621 298.223 27.3011 298.268 27.6371C298.222 27.9721 298.191 28.3121 298.191 28.6601V46.6151C298.191 50.7781 301.566 54.1531 305.729 54.1531H314.729H328.121H347.187L354.851 61.1891V46.6131V41.9611V41.1881V28.6591V26.6141V21.9621V8.6591C354.85 4.4961 351.476 1.12109 347.313 1.12109Z" fill="white" stroke="#C4C1D2" stroke-miterlimit="10" stroke-linecap="round" stroke-linejoin="round"/>
<path d="M327.229 17.8801H325.614H315.556L318.286 43.9571H325.614H327.229H334.556L337.287 17.8801H327.229Z" fill="white" stroke="#C4C1D2" stroke-width="0.75" stroke-miterlimit="10" stroke-linecap="round" stroke-linejoin="round"/>
<path d="M317.522 36.6532H335.321L336.722 23.2732H316.121L317.522 36.6532Z" fill="#C4C1D2"/>
<path d="M335.216 15.2691H317.825C317.156 15.2691 316.613 14.7261 316.613 14.0571V11.7701C316.613 11.1011 317.155 10.5591 317.825 10.5591H335.216C335.885 10.5591 336.428 11.1011 336.428 11.7701V14.0571C336.428 14.7261 335.885 15.2691 335.216 15.2691Z" fill="#C4C1D2"/>
<path d="M338.274 18.2851H314.767C313.892 18.2851 313.183 17.5761 313.183 16.7011V15.0601C313.183 14.1851 313.892 13.4761 314.767 13.4761H338.274C339.149 13.4761 339.858 14.1851 339.858 15.0601V16.7011C339.858 17.5761 339.149 18.2851 338.274 18.2851Z" fill="#C4C1D2"/>
<path d="M472.85 89.1611H508.073C512.573 89.1611 516.221 92.8091 516.221 97.3091V111.689V116.718V132.473L507.937 124.867H472.85C468.35 124.867 464.702 121.219 464.702 116.719V97.3101C464.702 92.8091 468.35 89.1611 472.85 89.1611Z" fill="white" stroke="#C4C1D2" stroke-width="0.75" stroke-miterlimit="10" stroke-linecap="round" stroke-linejoin="round"/>
<path d="M457.716 75.1582H492.939C497.439 75.1582 501.087 78.8062 501.087 83.3062V97.6862V102.715V118.47L492.803 110.864H457.716C453.216 110.864 449.568 107.216 449.568 102.716V83.3072C449.568 78.8062 453.216 75.1582 457.716 75.1582Z" fill="white" stroke="#C4C1D2" stroke-width="0.75" stroke-miterlimit="10" stroke-linecap="round" stroke-linejoin="round"/>
<path d="M483.388 93.6582C483.388 95.6152 484.974 97.2012 486.931 97.2012C488.888 97.2012 490.474 95.6152 490.474 93.6582C490.474 91.7022 488.888 90.1152 486.931 90.1152C484.974 90.1152 483.388 91.7022 483.388 93.6582Z" fill="#C4C1D2"/>
<path d="M471.064 93.6582C471.064 95.6152 472.65 97.2012 474.607 97.2012C476.564 97.2012 478.15 95.6152 478.15 93.6582C478.15 91.7022 476.564 90.1152 474.607 90.1152C472.65 90.1152 471.064 91.7022 471.064 93.6582Z" fill="#C4C1D2"/>
<path d="M458.739 93.6582C458.739 95.6152 460.325 97.2012 462.282 97.2012C464.239 97.2012 465.825 95.6152 465.825 93.6582C465.825 91.7022 464.239 90.1152 462.282 90.1152C460.325 90.1152 458.739 91.7022 458.739 93.6582Z" fill="#C4C1D2"/>
<path d="M660.331 367.313C669.242 356.794 704.323 285.402 696.299 274.715C686.24 261.318 663.317 297.389 649.565 341.664C649.565 341.664 663.56 280.53 651.784 273.187C640.086 265.894 633.299 323.452 634.462 365.572L660.331 367.313Z" fill="#D8D7E2"/>
<path d="M643.066 363.198C641.99 356.907 630.359 274.724 612.139 281.461C598.809 286.39 625.5 352.625 631.336 364.508L643.066 363.198Z" fill="#D8D7E2"/>
<path d="M643.066 352.195L648.135 288.286" stroke="#C4C1D2" stroke-width="0.75" stroke-miterlimit="10" stroke-linecap="round" stroke-linejoin="round"/>
<path d="M688.395 280.68L652.186 358.85" stroke="#C4C1D2" stroke-width="0.75" stroke-miterlimit="10" stroke-linecap="round" stroke-linejoin="round"/>
<path d="M634.594 358.85L614.985 289.764" stroke="#C4C1D2" stroke-width="0.75" stroke-miterlimit="10" stroke-linecap="round" stroke-linejoin="round"/>
<path d="M669.478 415.464H621.683C619.331 415.464 617.424 413.557 617.424 411.205V367.458C617.424 365.106 619.331 363.199 621.683 363.199H669.478C671.83 363.199 673.737 365.106 673.737 367.458V411.205C673.736 413.557 671.83 415.464 669.478 415.464Z" fill="#D8D7E2"/>
<path d="M641.076 79.397C653.949 68.8061 655.799 49.7847 645.208 36.9116C634.617 24.0385 615.596 22.1884 602.723 32.7793C589.85 43.3702 588 62.3915 598.591 75.2647C609.181 88.1378 628.203 89.9879 641.076 79.397Z" stroke="#C4C1D2" stroke-width="0.75" stroke-miterlimit="10"/>
<path d="M646.391 62.184C649.753 48.6623 641.518 34.9751 627.996 31.6128C614.474 28.2505 600.787 36.4863 597.425 50.008C594.062 63.5297 602.298 77.2169 615.82 80.5792C629.342 83.9415 643.029 75.7057 646.391 62.184Z" fill="white" stroke="#C4C1D2" stroke-width="0.75" stroke-miterlimit="10"/>
<path d="M629.428 34.6992L628.43 37.4952" stroke="#C4C1D2" stroke-width="0.75" stroke-miterlimit="10" stroke-linecap="round" stroke-linejoin="round"/>
<path d="M615.206 74.5652L614.209 77.3612" stroke="#C4C1D2" stroke-width="0.75" stroke-miterlimit="10" stroke-linecap="round" stroke-linejoin="round"/>
<path d="M600.393 48.5981L603.46 49.6921" stroke="#C4C1D2" stroke-width="0.75" stroke-miterlimit="10" stroke-linecap="round" stroke-linejoin="round"/>
<path d="M640.259 62.8191L643.326 63.9131" stroke="#C4C1D2" stroke-width="0.75" stroke-miterlimit="10" stroke-linecap="round" stroke-linejoin="round"/>
<path d="M617.534 33.6082L618.186 37.1962" stroke="#C4C1D2" stroke-width="0.75" stroke-miterlimit="10" stroke-linecap="round" stroke-linejoin="round"/>
<path d="M607.275 38.9971L609.343 41.4641" stroke="#C4C1D2" stroke-width="0.75" stroke-miterlimit="10" stroke-linecap="round" stroke-linejoin="round"/>
<path d="M599.681 60.2832L602.908 59.5032" stroke="#C4C1D2" stroke-width="0.75" stroke-miterlimit="10" stroke-linecap="round" stroke-linejoin="round"/>
<path d="M604.31 70.6782L606.989 68.5842" stroke="#C4C1D2" stroke-width="0.75" stroke-miterlimit="10" stroke-linecap="round" stroke-linejoin="round"/>
<path d="M625.957 78.4003L625.209 75.0833" stroke="#C4C1D2" stroke-width="0.75" stroke-miterlimit="10" stroke-linecap="round" stroke-linejoin="round"/>
<path d="M636.481 73.4112L634.296 70.7002" stroke="#C4C1D2" stroke-width="0.75" stroke-miterlimit="10" stroke-linecap="round" stroke-linejoin="round"/>
<path d="M644.074 52.1252L640.37 52.5322" stroke="#C4C1D2" stroke-width="0.75" stroke-miterlimit="10" stroke-linecap="round" stroke-linejoin="round"/>
<path d="M638.957 41.9592L636.405 43.6962" stroke="#C4C1D2" stroke-width="0.75" stroke-miterlimit="10" stroke-linecap="round" stroke-linejoin="round"/>
<path d="M625.308 57.2751C624.642 59.1431 622.587 60.1171 620.719 59.4511C618.851 58.7851 617.877 56.7301 618.543 54.8621C619.209 52.9941 621.264 52.0201 623.132 52.6861C625.001 53.3531 625.975 55.4071 625.308 57.2751Z" fill="#C4C1D2"/>
<path d="M627.772 40.7832L622.174 56.4772L607.847 60.2122" stroke="#C4C1D2" stroke-miterlimit="10" stroke-linecap="round" stroke-linejoin="round"/>
<path d="M188.568 374.001H197.833V313.851H188.568V374.001Z" fill="white" stroke="#A3A1AF" stroke-width="0.75" stroke-miterlimit="10"/>
<path d="M190.354 393.205H196.047C198.416 393.205 200.337 391.284 200.337 388.915V346.122C200.337 343.752 198.416 341.832 196.047 341.832H190.354C187.985 341.832 186.064 343.753 186.064 346.122V388.915C186.064 391.284 187.985 393.205 190.354 393.205Z" fill="#A3A1AF"/>
<path d="M156.641 388.903H158.915H227.486H232.878V395.086V402.042H227.486V395.086H158.915V402.042H153.524V395.086V388.903H156.641Z" fill="#A3A1AF"/>
<path d="M147.899 406.595C147.899 411.162 151.601 414.864 156.169 414.864C160.736 414.864 164.438 411.162 164.438 406.595C164.438 402.028 160.736 398.326 156.169 398.326C151.601 398.326 147.899 402.028 147.899 406.595Z" fill="white" stroke="#A3A1AF" stroke-width="0.75" stroke-miterlimit="10"/>
<path d="M153 406.595C153 408.345 154.419 409.764 156.169 409.764C157.919 409.764 159.337 408.345 159.337 406.595C159.337 404.845 157.918 403.426 156.169 403.426C154.419 403.427 153 404.845 153 406.595Z" fill="#A3A1AF"/>
<path d="M222.198 406.595C222.198 411.162 225.9 414.864 230.467 414.864C235.034 414.864 238.736 411.162 238.736 406.595C238.736 402.028 235.034 398.326 230.467 398.326C225.9 398.326 222.198 402.028 222.198 406.595Z" fill="white" stroke="#A3A1AF" stroke-width="0.75" stroke-miterlimit="10"/>
<path d="M227.299 406.595C227.299 408.345 228.718 409.764 230.468 409.764C232.218 409.764 233.637 408.345 233.637 406.595C233.637 404.845 232.218 403.426 230.468 403.426C228.718 403.426 227.299 404.845 227.299 406.595Z" fill="#A3A1AF"/>
<path d="M278.858 321.15H119.563C116.28 321.15 113.557 318.609 113.331 315.334L106.352 214.444C106.102 210.833 108.964 207.766 112.584 207.766H196.536C199.6 207.766 202.211 209.987 202.702 213.011L217.385 303.41C217.876 306.434 220.488 308.655 223.551 308.655H278.858C281.554 308.655 283.946 310.384 284.79 312.945C286.124 316.987 283.114 321.15 278.858 321.15Z" fill="white" stroke="#A3A1AF" stroke-width="0.75" stroke-miterlimit="10" stroke-linecap="round"/>
<path d="M113.733 231.158H185.965" stroke="#A3A1AF" stroke-width="0.75" stroke-miterlimit="10" stroke-linecap="round"/>
<path d="M113.733 254.18H190.078" stroke="#A3A1AF" stroke-width="0.75" stroke-miterlimit="10" stroke-linecap="round"/>
<path d="M118.394 277.201H194.739" stroke="#A3A1AF" stroke-width="0.75" stroke-miterlimit="10" stroke-linecap="round"/>
<path d="M118.394 300.222H194.739" stroke="#A3A1AF" stroke-width="0.75" stroke-miterlimit="10" stroke-linecap="round"/>
<path d="M191.45 212.593L206.143 310.035" stroke="#A3A1AF" stroke-width="0.75" stroke-miterlimit="10" stroke-linecap="round"/>
<path d="M658.71 415.464H579.422C576.654 415.464 574.411 413.221 574.411 410.453V358.61C574.411 355.843 576.654 353.599 579.422 353.599H658.71C661.478 353.599 663.721 355.842 663.721 358.61V410.453C663.721 413.22 661.477 415.464 658.71 415.464Z" fill="#16A663" stroke="#020046" stroke-width="0.75" stroke-miterlimit="10" stroke-linecap="round" stroke-linejoin="round"/>
<path d="M588.566 373.635V415.464" stroke="#020046" stroke-width="0.75" stroke-miterlimit="10" stroke-linecap="round" stroke-linejoin="round"/>
<path d="M649.566 373.635V415.464" stroke="#020046" stroke-width="0.75" stroke-miterlimit="10" stroke-linecap="round" stroke-linejoin="round"/>
<path d="M661.3 382.431H576.832C573.734 382.431 571.223 379.92 571.223 376.822V352.195C571.223 349.097 573.734 346.586 576.832 346.586H661.3C664.398 346.586 666.909 349.097 666.909 352.195V376.822C666.909 379.92 664.398 382.431 661.3 382.431Z" fill="#16A663"/>
<path d="M666.909 352.195V376.822C666.909 379.92 664.398 382.431 661.3 382.431H576.832C573.734 382.431 571.223 379.92 571.223 376.822V352.195" stroke="#020046" stroke-width="0.75" stroke-miterlimit="10" stroke-linecap="round" stroke-linejoin="round"/>
<path d="M599.525 347.979H590.606C589.763 347.979 589.079 347.295 589.079 346.452C589.079 345.609 589.763 344.925 590.606 344.925H599.525C600.368 344.925 601.052 345.609 601.052 346.452C601.052 347.295 600.368 347.979 599.525 347.979Z" fill="#020046"/>
<path d="M647.525 347.979H638.606C637.763 347.979 637.079 347.295 637.079 346.452C637.079 345.609 637.763 344.925 638.606 344.925H647.525C648.368 344.925 649.052 345.609 649.052 346.452C649.052 347.295 648.368 347.979 647.525 347.979Z" fill="#020046"/>
<path d="M599.566 346.811C598.944 346.811 598.44 346.307 598.44 345.685V341.118C598.44 340.496 598.944 339.992 599.566 339.992C600.188 339.992 600.692 340.496 600.692 341.118V345.685C600.692 346.307 600.188 346.811 599.566 346.811Z" fill="#A3A1AF"/>
<path d="M638.566 346.811C637.944 346.811 637.44 346.307 637.44 345.685V341.118C637.44 340.496 637.944 339.992 638.566 339.992C639.188 339.992 639.692 340.496 639.692 341.118V345.685C639.692 346.307 639.188 346.811 638.566 346.811Z" fill="#A3A1AF"/>
<path d="M599.416 341.391C604.489 339.023 611.421 337.565 619.066 337.565C626.714 337.565 633.65 339.025 638.723 341.394" stroke="#020046" stroke-width="4" stroke-miterlimit="10" stroke-linecap="round" stroke-linejoin="round"/>
<path d="M624.269 372.634C624.466 371.634 623.701 370.703 622.681 370.703H620.649H617.481H615.449C614.43 370.703 613.664 371.634 613.861 372.634L614.947 378.142H623.182L624.269 372.634Z" stroke="#020046" stroke-width="0.75" stroke-miterlimit="10" stroke-linecap="round" stroke-linejoin="round"/>
<path d="M622.269 383.463H615.863C614.81 383.463 613.956 382.609 613.956 381.556V379.105C613.956 378.052 614.81 377.198 615.863 377.198H622.269C623.322 377.198 624.176 378.052 624.176 379.105V381.556C624.176 382.609 623.322 383.463 622.269 383.463Z" fill="#020046"/>
<path d="M619.76 390.63H618.371C615.486 390.63 613.147 388.291 613.147 385.406V381.464C613.147 380.978 613.541 380.584 614.027 380.584H624.104C624.59 380.584 624.984 380.978 624.984 381.464V385.406C624.984 388.291 622.646 390.63 619.76 390.63Z" fill="#020046"/>
<path d="M620.708 384.712H617.423V387.997H620.708V384.712Z" stroke="#C4C1D2" stroke-width="0.75" stroke-miterlimit="10" stroke-linecap="round" stroke-linejoin="round"/>
<path d="M613.673 380.66H624.3" stroke="#C4C1D2" stroke-width="0.75" stroke-miterlimit="10" stroke-linecap="round" stroke-linejoin="round"/>
</svg>
